<svg width="165" height="165" viewBox="0 0 165 165" fill="none" xmlns="http://www.w3.org/2000/svg">
<path d="M62.2418 90.2389V98.6562H61.2557L56.2053 92.3793V98.6562H55.0028V90.2389H55.9889L61.0393 96.5158V90.2389H62.2418ZM68.5611 98.7524C67.7114 98.7524 66.9458 98.5681 66.2644 98.1993C65.583 97.8225 65.0459 97.3055 64.653 96.6481C64.2683 95.9907 64.0759 95.2572 64.0759 94.4476C64.0759 93.6379 64.2683 92.9044 64.653 92.247C65.0459 91.5896 65.583 91.0766 66.2644 90.7078C66.9458 90.331 67.7114 90.1427 68.5611 90.1427C69.4029 90.1427 70.1644 90.331 70.8458 90.7078C71.5273 91.0766 72.0604 91.5896 72.4451 92.247C72.8299 92.8963 73.0223 93.6299 73.0223 94.4476C73.0223 95.2652 72.8299 96.0028 72.4451 96.6601C72.0604 97.3095 71.5273 97.8225 70.8458 98.1993C70.1644 98.5681 69.4029 98.7524 68.5611 98.7524ZM68.5611 97.6822C69.1784 97.6822 69.7315 97.5419 70.2206 97.2614C70.7176 96.9808 71.1064 96.596 71.387 96.107C71.6756 95.61 71.8199 95.0568 71.8199 94.4476C71.8199 93.8383 71.6756 93.2892 71.387 92.8001C71.1064 92.3031 70.7176 91.9143 70.2206 91.6337C69.7315 91.3532 69.1784 91.2129 68.5611 91.2129C67.9438 91.2129 67.3827 91.3532 66.8776 91.6337C66.3806 91.9143 65.9878 92.3031 65.6992 92.8001C65.4186 93.2892 65.2783 93.8383 65.2783 94.4476C65.2783 95.0568 65.4186 95.61 65.6992 96.107C65.9878 96.596 66.3806 96.9808 66.8776 97.2614C67.3827 97.5419 67.9438 97.6822 68.5611 97.6822ZM80.4879 98.6562L78.6721 96.0709C78.4477 96.0869 78.2713 96.095 78.143 96.095H76.0627V98.6562H74.8603V90.2389H78.143C79.2333 90.2389 80.0911 90.4994 80.7164 91.0205C81.3417 91.5415 81.6543 92.259 81.6543 93.1729C81.6543 93.8223 81.494 94.3754 81.1733 94.8323C80.8526 95.2893 80.3957 95.622 79.8025 95.8304L81.7986 98.6562H80.4879ZM78.107 95.0728C78.8685 95.0728 79.4497 94.9085 79.8506 94.5798C80.2514 94.2511 80.4518 93.7822 80.4518 93.1729C80.4518 92.5637 80.2514 92.0987 79.8506 91.778C79.4497 91.4494 78.8685 91.285 78.107 91.285H76.0627V95.0728H78.107ZM91.4012 98.6562L91.3892 92.5236L88.3469 97.6341H87.7937L84.7515 92.5597V98.6562H83.5971V90.2389H84.5831L88.0944 96.1551L91.5575 90.2389H92.5436L92.5556 98.6562H91.4012ZM100.445 96.5519H95.9716L95.0457 98.6562H93.8071L97.619 90.2389H98.8094L102.633 98.6562H101.371L100.445 96.5519ZM100.024 95.5899L98.2082 91.4654L96.3924 95.5899H100.024ZM103.889 90.2389H105.091V97.6101H109.649V98.6562H103.889V90.2389Z" fill="#666666"/>
<path d="M70.8198 69.6007V82.6094H67.8092V72.0166H65.2075V69.6007H70.8198ZM77.5398 74.4882C79.3734 74.4882 80.7238 74.8537 81.591 75.5847C82.4707 76.3156 82.9105 77.2944 82.9105 78.5209C82.9105 79.3138 82.7123 80.0386 82.3158 80.6952C81.9194 81.3395 81.3123 81.8598 80.4946 82.2563C79.6893 82.6403 78.692 82.8324 77.5026 82.8324C76.5858 82.8324 75.6814 82.7147 74.7894 82.4793C73.9097 82.2315 73.1602 81.8846 72.5407 81.4386L73.7301 79.1342C74.2256 79.5059 74.7955 79.797 75.4398 80.0076C76.084 80.2059 76.7469 80.305 77.4283 80.305C78.184 80.305 78.7787 80.1563 79.2123 79.859C79.6459 79.5616 79.8627 79.1466 79.8627 78.6138C79.8627 78.0563 79.6335 77.6351 79.1751 77.3501C78.7291 77.0652 77.9486 76.9227 76.8336 76.9227H73.5071L74.1761 69.6007H82.1114V72.0166H76.6849L76.4805 74.4882H77.5398ZM86.9611 76.6254C86.0071 76.6254 85.2266 76.3033 84.6195 75.659C84.0248 75.0024 83.7275 74.1289 83.7275 73.0387C83.7275 71.9484 84.0248 71.0812 84.6195 70.437C85.2266 69.7803 86.0071 69.452 86.9611 69.452C87.915 69.452 88.6893 69.7803 89.284 70.437C89.8787 71.0812 90.1761 71.9484 90.1761 73.0387C90.1761 74.1289 89.8787 75.0024 89.284 75.659C88.6893 76.3033 87.915 76.6254 86.9611 76.6254ZM94.7105 69.6007H96.922L88.0389 82.6094H85.8274L94.7105 69.6007ZM86.9611 75.1015C87.3823 75.1015 87.7106 74.928 87.946 74.5812C88.1938 74.2343 88.3177 73.7201 88.3177 73.0387C88.3177 72.3573 88.1938 71.8431 87.946 71.4962C87.7106 71.1493 87.3823 70.9759 86.9611 70.9759C86.5522 70.9759 86.2239 71.1555 85.9761 71.5148C85.7283 71.8617 85.6044 72.3697 85.6044 73.0387C85.6044 73.7077 85.7283 74.2219 85.9761 74.5812C86.2239 74.928 86.5522 75.1015 86.9611 75.1015ZM95.7884 82.758C95.1689 82.758 94.6114 82.6156 94.1158 82.3306C93.6327 82.0333 93.2548 81.612 92.9822 81.0669C92.7097 80.5218 92.5734 79.8899 92.5734 79.1714C92.5734 78.4528 92.7097 77.8209 92.9822 77.2758C93.2548 76.7307 93.6327 76.3156 94.1158 76.0307C94.6114 75.7333 95.1689 75.5847 95.7884 75.5847C96.7424 75.5847 97.5167 75.913 98.1114 76.5696C98.7184 77.2139 99.022 78.0811 99.022 79.1714C99.022 80.2616 98.7184 81.1351 98.1114 81.7917C97.5167 82.4359 96.7424 82.758 95.7884 82.758ZM95.7884 81.2342C96.2096 81.2342 96.5379 81.0607 96.7733 80.7138C97.0211 80.3545 97.145 79.8404 97.145 79.1714C97.145 78.5023 97.0211 77.9944 96.7733 77.6475C96.5379 77.2882 96.2096 77.1086 95.7884 77.1086C95.3795 77.1086 95.0512 77.282 94.8034 77.6289C94.5557 77.9758 94.4318 78.49 94.4318 79.1714C94.4318 79.8528 94.5557 80.3669 94.8034 80.7138C95.0512 81.0607 95.3795 81.2342 95.7884 81.2342Z" fill="#151522"/>
<path d="M162.881 67.6393C165.506 81.6417 164.437 96.0864 159.779 109.55C155.122 123.013 147.036 135.031 136.32 144.418C125.604 153.805 112.626 160.238 98.6669 163.082C84.7075 165.927 70.2478 165.085 56.7129 160.639L59.2713 152.85C71.4527 156.851 84.4664 157.608 97.0299 155.048C109.593 152.488 121.273 146.699 130.918 138.251C140.562 129.802 147.839 118.986 152.031 106.869C156.223 94.7523 157.185 81.7521 154.822 69.1499L162.881 67.6393Z" fill="#F8191E"/>
<path d="M164.285 82.7454C164.285 128.026 127.577 164.733 82.2969 164.733C37.0164 164.733 0.309326 128.026 0.309326 82.7454C0.309326 37.4649 37.0164 0.757812 82.2969 0.757812C127.577 0.757812 164.285 37.4649 164.285 82.7454ZM8.50809 82.7454C8.50809 123.498 41.5445 156.534 82.2969 156.534C123.049 156.534 156.086 123.498 156.086 82.7454C156.086 41.993 123.049 8.95657 82.2969 8.95657C41.5445 8.95657 8.50809 41.993 8.50809 82.7454Z" fill="#6EC6A4"/>
</svg>
