<svg width="187" height="71" viewBox="0 0 187 71" fill="none" xmlns="http://www.w3.org/2000/svg">
<path fill-rule="evenodd" clip-rule="evenodd" d="M144.632 70.9906V4.85229C144.632 2.26736 146.728 0.171875 149.313 0.171875C151.898 0.171875 153.993 2.26737 153.993 4.85229V70.9906H144.632Z" fill="#6979F8"/>
<path fill-rule="evenodd" clip-rule="evenodd" d="M129.577 70.9948V27.2898C129.577 24.7049 131.672 22.6094 134.257 22.6094C136.842 22.6094 138.938 24.7049 138.938 27.2898V70.9948H129.577Z" fill="#9BA6FA"/>
<path fill-rule="evenodd" clip-rule="evenodd" d="M112.387 70.9799V14.0789C112.387 11.4939 114.483 9.39844 117.068 9.39844C119.653 9.39844 121.748 11.4939 121.748 14.0789V70.9799H112.387Z" fill="#6979F8"/>
<path fill-rule="evenodd" clip-rule="evenodd" d="M97.3319 70.9785V40.4695C97.3319 37.8846 99.4274 35.7891 102.012 35.7891C104.597 35.7891 106.693 37.8846 106.693 40.4695V70.9785H97.3319Z" fill="#9BA6FA"/>
<path fill-rule="evenodd" clip-rule="evenodd" d="M80.1427 70.9795V22.8757C80.1427 20.2908 82.2382 18.1953 84.8231 18.1953C87.4081 18.1953 89.5036 20.2908 89.5036 22.8757V70.9795H80.1427Z" fill="#6979F8"/>
<path fill-rule="evenodd" clip-rule="evenodd" d="M65.0874 70.9709V36.0632C65.0874 33.4783 67.1829 31.3828 69.7678 31.3828C72.3528 31.3828 74.4483 33.4783 74.4483 36.0632V70.9709H65.0874Z" fill="#9BA6FA"/>
<path fill-rule="evenodd" clip-rule="evenodd" d="M47.9021 70.9802V9.68042C47.9021 7.09549 49.9976 5 52.5825 5C55.1675 5 57.263 7.0955 57.263 9.68042V70.9802H47.9021Z" fill="#6979F8"/>
<path fill-rule="evenodd" clip-rule="evenodd" d="M32.8466 70.9719V18.4695C32.8466 15.8846 34.9421 13.7891 37.527 13.7891C40.1119 13.7891 42.2074 15.8846 42.2074 18.4695V70.9719H32.8466Z" fill="#9BA6FA"/>
<path fill-rule="evenodd" clip-rule="evenodd" d="M176.764 70.9906L176.764 4.96113C176.764 2.3161 178.908 0.171875 181.553 0.171875C184.198 0.171875 186.342 2.3161 186.342 4.96114V70.9906H176.764Z" fill="#6979F8"/>
<path fill-rule="evenodd" clip-rule="evenodd" d="M161.708 70.9941L161.708 40.594C161.708 37.9489 163.853 35.8047 166.498 35.8047C169.143 35.8047 171.287 37.9489 171.287 40.594V70.9941H161.708Z" fill="#9BA6FA"/>
<path fill-rule="evenodd" clip-rule="evenodd" d="M15.6592 70.9719V18.4695C15.6592 15.8846 17.7547 13.7891 20.3396 13.7891C22.9245 13.7891 25.02 15.8846 25.02 18.4695V70.9719H15.6592Z" fill="#6979F8"/>
<path fill-rule="evenodd" clip-rule="evenodd" d="M0.604025 70.9707V40.4617C0.604025 37.8767 2.69952 35.7812 5.28445 35.7812C7.86937 35.7812 9.96487 37.8767 9.96487 40.4617V70.9707H0.604025Z" fill="#9BA6FA"/>
</svg>
