<svg width="80" height="80" viewBox="0 0 80 80" fill="none" xmlns="http://www.w3.org/2000/svg">
<path d="M20.501 3.93858C23.8863 1.37479 28.0189 -0.0080054 32.2655 0.00219241C33.732 -0.0306946 35.1832 0.30687 36.4847 0.98365C37.7862 1.66043 38.896 2.65456 39.7113 3.87405C40.5267 2.65456 41.6365 1.66043 42.938 0.98365C44.2395 0.30687 45.6906 -0.0306946 47.1572 0.00219241C51.4037 -0.0080054 55.5364 1.37479 58.9217 3.93858C61.5278 5.96386 63.5382 8.76847 64.248 12.1588C65.8762 12.2829 67.3653 12.958 68.6162 13.9756C70.5125 15.5144 71.8924 17.8227 72.7611 20.2649C74.1212 24.0623 74.4886 28.9021 73.0788 33.0222C73.4362 33.191 73.7886 33.3895 74.1312 33.6178C75.4962 34.5262 76.5337 35.8268 77.2981 37.3606C78.8022 40.3638 79.4227 44.5534 79.4227 49.6414C79.4227 55.3052 77.2634 59.1076 74.5233 61.4555C73.0081 62.7547 71.2199 63.6963 69.2913 64.2105C68.7949 66.9803 67.405 70.187 65.2259 72.9073C62.3965 76.4565 58.0083 79.4249 52.1211 79.4249C47.4551 79.4249 43.7421 76.8436 41.3296 74.312C40.7528 73.7076 40.2125 73.0694 39.7113 72.4009C39.2103 73.0695 38.6699 73.7077 38.0931 74.312C35.6806 76.8436 31.9726 79.4249 27.3016 79.4249C21.4143 79.4249 17.0312 76.4565 14.1968 72.9073C12.1604 70.3784 10.7656 67.3947 10.1314 64.2105C8.20278 63.6963 6.41462 62.7547 4.89939 61.4555C2.1593 59.1076 0 55.3002 0 49.6414C0 44.5534 0.625454 40.3588 2.12456 37.3606C2.889 35.8268 3.92646 34.5312 5.29154 33.6129C5.62679 33.3909 5.97861 33.1951 6.34389 33.0271C4.93413 28.8972 5.30147 24.0623 6.66158 20.2649C7.53026 17.8227 8.91023 15.5144 10.8064 13.9756C12.0574 12.958 13.5465 12.2879 15.1747 12.1588C15.8895 8.76847 17.8999 5.96386 20.5059 3.93858H20.501ZM37.2294 12.412V12.3623L37.2195 12.1142C37.1464 10.8201 36.889 9.54305 36.455 8.32172C36.1461 7.39973 35.62 6.56551 34.9212 5.8894C34.188 5.25094 33.2366 4.92018 32.2655 4.96611C29.123 4.95534 26.0628 5.96961 23.5488 7.85511C21.2456 9.64709 19.8557 12.0744 19.8557 14.8939C19.8554 15.287 19.7617 15.6744 19.5824 16.0242C19.4031 16.374 19.1433 16.6762 18.8244 16.9059C18.5055 17.1357 18.1366 17.2864 17.748 17.3456C17.3594 17.4049 16.9623 17.371 16.5894 17.2468C15.6562 16.9391 14.8223 17.1128 13.9337 17.8276C12.9608 18.6219 12.0127 20.0316 11.3326 21.9328C9.94769 25.8146 10.0916 30.5154 11.9928 33.3746C12.2643 33.7818 12.4094 34.2602 12.4098 34.7496H16.1327C19.0949 34.7496 21.9357 35.9263 24.0303 38.0209C26.1248 40.1155 27.3016 42.9563 27.3016 45.9184V47.5813C28.9575 48.1668 30.3533 49.3189 31.242 50.8339C32.1307 52.3489 32.4553 54.1293 32.1582 55.8605C31.8612 57.5917 30.9618 59.1621 29.6189 60.2942C28.2759 61.4263 26.576 62.0473 24.8196 62.0473C23.0631 62.0473 21.3632 61.4263 20.0203 60.2942C18.6774 59.1621 17.778 57.5917 17.4809 55.8605C17.1839 54.1293 17.5085 52.3489 18.3972 50.8339C19.2859 49.3189 20.6816 48.1668 22.3376 47.5813V45.9184C22.3376 42.4933 19.5578 39.7135 16.1327 39.7135H7.44588C7.14914 39.713 6.8549 39.6592 6.57719 39.5547L6.5623 39.5845C5.57944 41.5452 4.96392 44.8016 4.96392 49.6414C4.96392 53.9054 6.52755 56.3079 8.1309 57.6829C9.85338 59.1622 11.7645 59.5692 12.4098 59.5692C13.0681 59.5692 13.6993 59.8307 14.1648 60.2962C14.6303 60.7616 14.8918 61.3929 14.8918 62.0512C14.8918 63.8779 15.8845 67.0697 18.0687 69.8098C20.1982 72.4655 23.2609 74.461 27.3016 74.461C30.0813 74.461 32.5732 72.9073 34.4992 70.8869C35.4473 69.8942 36.187 68.8666 36.6685 68.0228C36.8876 67.6485 37.0753 67.2567 37.2294 66.8513V27.3037H31.8435C31.2581 28.9597 30.106 30.3554 28.591 31.2442C27.076 32.1329 25.2955 32.4574 23.5644 32.1604C21.8332 31.8634 20.2628 30.964 19.1307 29.621C17.9986 28.2781 17.3776 26.5782 17.3776 24.8218C17.3776 23.0653 17.9986 21.3654 19.1307 20.0225C20.2628 18.6796 21.8332 17.7802 23.5644 17.4831C25.2955 17.1861 27.076 17.5107 28.591 18.3994C30.106 19.2881 31.2581 20.6838 31.8435 22.3398H37.2294V12.412ZM42.1933 62.0462V66.8463C42.3475 67.2517 42.5351 67.6435 42.7542 68.0178C43.2407 68.8617 43.9753 69.8892 44.9185 70.882C46.8495 72.9023 49.3463 74.456 52.1211 74.456C56.1618 74.456 59.2245 72.4605 61.354 69.8048C63.5382 67.0647 64.5309 63.8729 64.5309 62.0462C64.5309 61.3879 64.7924 60.7567 65.2579 60.2912C65.7233 59.8257 66.3546 59.5642 67.0129 59.5642C67.6582 59.5642 69.5693 59.1572 71.2918 57.678C72.8951 56.303 74.4588 53.9004 74.4588 49.6364C74.4588 44.7966 73.8383 41.5452 72.8604 39.5795C72.5332 38.8475 72.0198 38.2142 71.3712 37.7429C70.8123 37.3856 70.1577 37.2072 69.4949 37.2316C69.0459 37.2313 68.6054 37.1093 68.2203 36.8786C67.8352 36.6478 67.52 36.3169 67.308 35.9211C67.0961 35.5253 66.9956 35.0795 67.017 34.631C67.0385 34.1826 67.1811 33.7484 67.4299 33.3746C69.336 30.5154 69.475 25.8146 68.0901 21.9328C67.41 20.0316 66.4619 18.6169 65.489 17.8276C64.6004 17.1128 63.7665 16.9341 62.8333 17.2468C62.4604 17.371 62.0633 17.4049 61.6747 17.3456C61.2861 17.2864 60.9172 17.1357 60.5983 16.9059C60.2793 16.6762 60.0195 16.374 59.8403 16.0242C59.661 15.6744 59.5673 15.287 59.567 14.8939C59.567 12.0744 58.1771 9.64709 55.8689 7.85511C53.3563 5.97063 50.298 4.95642 47.1572 4.96611C46.1861 4.92018 45.2347 5.25094 44.5015 5.8894C43.8006 6.56473 43.2727 7.39907 42.9627 8.32172C42.4901 9.61832 42.2303 10.9828 42.1933 12.3623V57.0873H45.9162C49.3413 57.0873 52.1211 54.3075 52.1211 50.8824V41.7736C50.4651 41.1881 49.0694 40.036 48.1807 38.521C47.292 37.006 46.9674 35.2256 47.2645 33.4944C47.5615 31.7633 48.4609 30.1928 49.8038 29.0607C51.1467 27.9286 52.8467 27.3076 54.6031 27.3076C56.3596 27.3076 58.0595 27.9286 59.4024 29.0607C60.7453 30.1928 61.6447 31.7633 61.9417 33.4944C62.2388 35.2256 61.9142 37.006 61.0255 38.521C60.1368 40.036 58.7411 41.1881 57.0851 41.7736V50.8824C57.0851 53.8445 55.9083 56.6853 53.8138 58.7799C51.7192 60.8745 48.8784 62.0512 45.9162 62.0512H42.1933V62.0462ZM22.3376 24.8218C22.3376 25.48 22.5991 26.1113 23.0646 26.5768C23.53 27.0422 24.1613 27.3037 24.8196 27.3037C25.4778 27.3037 26.1091 27.0422 26.5746 26.5768C27.0401 26.1113 27.3016 25.48 27.3016 24.8218C27.3016 24.1635 27.0401 23.5322 26.5746 23.0668C26.1091 22.6013 25.4778 22.3398 24.8196 22.3398C24.1613 22.3398 23.53 22.6013 23.0646 23.0668C22.5991 23.5322 22.3376 24.1635 22.3376 24.8218ZM54.6031 37.2316C55.2614 37.2316 55.8927 36.9701 56.3581 36.5046C56.8236 36.0392 57.0851 35.4079 57.0851 34.7496C57.0851 34.0914 56.8236 33.4601 56.3581 32.9946C55.8927 32.5292 55.2614 32.2677 54.6031 32.2677C53.9448 32.2677 53.3135 32.5292 52.8481 32.9946C52.3826 33.4601 52.1211 34.0914 52.1211 34.7496C52.1211 35.4079 52.3826 36.0392 52.8481 36.5046C53.3135 36.9701 53.9448 37.2316 54.6031 37.2316ZM24.8196 52.1233C24.1613 52.1233 23.53 52.3848 23.0646 52.8503C22.5991 53.3157 22.3376 53.947 22.3376 54.6053C22.3376 55.2635 22.5991 55.8948 23.0646 56.3603C23.53 56.8258 24.1613 57.0873 24.8196 57.0873C25.4778 57.0873 26.1091 56.8258 26.5746 56.3603C27.0401 55.8948 27.3016 55.2635 27.3016 54.6053C27.3016 53.947 27.0401 53.3157 26.5746 52.8503C26.1091 52.3848 25.4778 52.1233 24.8196 52.1233Z" fill="url(#paint0_angular_1678_954)"/>
<defs>
<radialGradient id="paint0_angular_1678_954" cx="0" cy="0" r="1" gradientUnits="userSpaceOnUse" gradientTransform="translate(-1.62087 25.9339) rotate(25.288) scale(113.834 113.831)">
<stop offset="0.107338" stop-color="#FD9F3E"/>
<stop offset="0.916916" stop-color="#6DDCEC"/>
<stop offset="0.993607" stop-color="#9F8BD2"/>
</radialGradient>
</defs>
</svg>
